<svg width="25" height="24" viewBox="0 0 25 24" fill="none" xmlns="http://www.w3.org/2000/svg">
<rect x="0.423462" width="24" height="24" rx="12" fill="#1C1326"/>
<path d="M15.6787 9.69931L16.5929 10.7735C16.6976 10.8942 16.7904 10.9934 16.8279 11.0499C17.1013 11.3216 17.2546 11.6889 17.2544 12.0716C17.2288 12.523 16.9345 12.8305 16.662 13.1594L16.0222 13.9106L15.6885 14.2998C15.6765 14.3132 15.6688 14.3298 15.6663 14.3475C15.6638 14.3652 15.6666 14.3832 15.6743 14.3993C15.6821 14.4155 15.6945 14.429 15.71 14.4383C15.7255 14.4476 15.7434 14.4522 15.7616 14.4515H19.0968C19.6062 14.4515 20.248 14.8797 20.2105 15.5297C20.2095 15.8251 20.0899 16.1081 19.8779 16.317C19.6659 16.5259 19.3788 16.6437 19.079 16.6447H13.856C13.5124 16.6447 12.5883 16.6817 12.3296 15.8936C12.2746 15.7289 12.2671 15.5524 12.3079 15.3837C12.3831 15.1343 12.502 14.8998 12.6594 14.6909C12.922 14.3017 13.2064 13.9125 13.4868 13.535C13.8481 13.0407 14.2194 12.5619 14.5847 12.0579C14.5977 12.0415 14.6047 12.0213 14.6047 12.0005C14.6047 11.9797 14.5977 11.9595 14.5847 11.9431L13.2577 10.3863C13.2491 10.375 13.2379 10.3658 13.225 10.3595C13.2122 10.3532 13.198 10.3499 13.1836 10.3499C13.1693 10.3499 13.1551 10.3532 13.1423 10.3595C13.1295 10.3658 13.1182 10.375 13.1096 10.3863C12.7542 10.8591 11.1982 12.9531 10.8664 13.3773C10.5346 13.8016 9.71714 13.8249 9.26493 13.3773L7.18959 11.3243C7.17633 11.3112 7.1594 11.3022 7.14103 11.2986C7.12261 11.295 7.10348 11.2968 7.08614 11.3039C7.06879 11.311 7.05398 11.323 7.04358 11.3384C7.03317 11.3538 7.02764 11.3719 7.02768 11.3904V15.3389C7.03256 15.6192 6.94837 15.8938 6.78689 16.1245C6.6254 16.3552 6.39473 16.5303 6.12722 16.6253C5.95626 16.6839 5.77359 16.7014 5.59439 16.6763C5.41518 16.6513 5.24465 16.5843 5.09704 16.4811C4.94943 16.3779 4.82898 16.2414 4.74575 16.083C4.66252 15.9246 4.61892 15.7489 4.61859 15.5705V8.47138C4.63049 8.21553 4.7239 7.96991 4.88554 7.76938C5.04719 7.56885 5.26884 7.42363 5.51901 7.35435C5.73365 7.298 5.95954 7.29856 6.17386 7.35599C6.38817 7.41341 6.58326 7.52563 6.73936 7.6813L9.93042 10.83C9.93998 10.8395 9.95151 10.8469 9.96431 10.8516C9.97706 10.8562 9.9907 10.8581 10.0043 10.857C10.0178 10.8559 10.031 10.8518 10.0428 10.8451C10.0546 10.8385 10.0648 10.8293 10.0726 10.8183L12.3395 7.72606C12.4442 7.60053 12.5756 7.49905 12.7243 7.42883C12.873 7.35856 13.0355 7.32121 13.2005 7.31933H19.0968C19.2581 7.31956 19.4176 7.35378 19.5644 7.41969C19.7113 7.48555 19.8422 7.5816 19.9484 7.70131C20.0546 7.82108 20.1336 7.9618 20.1802 8.11405C20.2267 8.2663 20.2397 8.42661 20.2184 8.58425C20.1768 8.85767 20.0361 9.107 19.8222 9.28592C19.6083 9.46485 19.3358 9.56127 19.0553 9.55728H15.7537C15.7371 9.55766 15.7209 9.56244 15.7068 9.57111C15.6928 9.57974 15.6813 9.59197 15.6736 9.60645C15.666 9.62099 15.6624 9.63725 15.6632 9.65356C15.6641 9.66992 15.6695 9.68572 15.6787 9.69931Z" fill="url(#paint0_radial_6204_5907)"/>
<defs>
<radialGradient id="paint0_radial_6204_5907" cx="0" cy="0" r="1" gradientUnits="userSpaceOnUse" gradientTransform="translate(4.66396 7.31249) rotate(31.8526) scale(18.4306 15.0426)">
<stop stop-color="#7500EB"/>
<stop offset="0.48642" stop-color="#E42575"/>
<stop offset="0.791667" stop-color="#E42575"/>
<stop offset="1" stop-color="#FF6914"/>
</radialGradient>
</defs>
</svg>
