<svg width="24" height="24" viewBox="0 0 512 512" fill="none" xmlns="http://www.w3.org/2000/svg">
<rect width="512" height="512" rx="113.778" fill="#1C1326"/>
<path d="M326.623 207.006L346.127 229.923C348.36 232.497 350.34 234.614 351.14 235.818C356.973 241.615 360.244 249.45 360.239 257.614C359.692 267.245 353.415 273.805 347.601 280.821L333.953 296.846L326.833 305.149C326.578 305.435 326.413 305.789 326.36 306.167C326.306 306.544 326.366 306.929 326.531 307.273C326.697 307.618 326.962 307.907 327.292 308.105C327.623 308.303 328.005 308.401 328.392 308.387H399.543C410.411 308.387 424.102 317.52 423.302 331.387C423.28 337.689 420.729 343.727 416.207 348.183C411.685 352.64 405.559 355.153 399.164 355.175H287.74C280.41 355.175 260.695 355.964 255.177 339.15C254.003 335.637 253.843 331.871 254.714 328.273C256.318 322.952 258.855 317.95 262.212 313.493C267.815 305.19 273.881 296.887 279.863 288.833C287.572 278.288 295.492 268.075 303.285 257.323C303.562 256.973 303.712 256.542 303.712 256.098C303.712 255.655 303.562 255.224 303.285 254.874L274.976 221.661C274.792 221.42 274.553 221.225 274.279 221.091C274.005 220.956 273.703 220.886 273.396 220.886C273.09 220.886 272.788 220.956 272.514 221.091C272.24 221.225 272.001 221.42 271.817 221.661C264.234 231.749 231.039 276.42 223.962 285.47C216.884 294.521 199.444 295.019 189.797 285.47L145.523 241.672C145.24 241.392 144.879 241.201 144.487 241.124C144.094 241.047 143.686 241.086 143.316 241.238C142.946 241.389 142.63 241.645 142.408 241.974C142.186 242.302 142.068 242.688 142.069 243.083V327.318C142.173 333.296 140.377 339.156 136.932 344.077C133.487 348.998 128.566 352.733 122.859 354.76C119.212 356.011 115.315 356.384 111.492 355.849C107.669 355.314 104.031 353.886 100.882 351.684C97.7328 349.483 95.1632 346.571 93.3877 343.191C91.6121 339.812 90.6821 336.064 90.675 332.258V180.81C90.9288 175.352 92.9215 170.112 96.37 165.834C99.8185 161.556 104.547 158.458 109.884 156.98C114.463 155.778 119.282 155.79 123.854 157.015C128.426 158.24 132.588 160.634 135.918 163.955L203.994 231.127C204.198 231.331 204.444 231.488 204.717 231.588C204.989 231.687 205.28 231.727 205.57 231.703C205.859 231.679 206.14 231.593 206.392 231.45C206.643 231.308 206.86 231.112 207.027 230.878L255.388 164.91C257.622 162.232 260.424 160.067 263.597 158.569C266.77 157.07 270.236 156.273 273.755 156.233H399.543C402.985 156.238 406.387 156.968 409.52 158.374C412.653 159.779 415.446 161.828 417.711 164.382C419.976 166.937 421.662 169.939 422.655 173.187C423.648 176.435 423.926 179.855 423.47 183.218C422.584 189.051 419.581 194.37 415.018 198.187C410.455 202.004 404.643 204.061 398.658 203.976H328.223C327.869 203.984 327.524 204.086 327.224 204.271C326.924 204.455 326.679 204.716 326.515 205.025C326.352 205.335 326.276 205.682 326.294 206.03C326.313 206.379 326.427 206.716 326.623 207.006Z" fill="url(#paint0_radial_402_145)"/>
<defs>
<radialGradient id="paint0_radial_402_145" cx="0" cy="0" r="1" gradientUnits="userSpaceOnUse" gradientTransform="translate(91.6428 156.087) rotate(31.8526) scale(393.187 320.909)">
<stop stop-color="#7500EB"/>
<stop offset="0.48642" stop-color="#E42575"/>
<stop offset="0.791667" stop-color="#E42575"/>
<stop offset="1" stop-color="#FF6914"/>
</radialGradient>
</defs>
</svg>
