<svg width="24" height="24" viewBox="0 0 120 120" fill="none" xmlns="http://www.w3.org/2000/svg">
<path d="M0 0 C0.74851227 -0.0049649 1.49702454 -0.00992981 2.26821899 -0.01504517 C4.74034553 -0.02962896 7.21240786 -0.03646308 9.68457031 -0.04199219 C11.40846762 -0.04774751 13.13236492 -0.0535052 14.85626221 -0.05926514 C18.4709096 -0.0697649 22.08553482 -0.07561402 25.70019531 -0.07910156 C30.31795358 -0.08457885 34.93541589 -0.10859476 39.55308151 -0.13707352 C43.11514118 -0.15575625 46.67713042 -0.16090853 50.23923492 -0.16243744 C51.94078435 -0.16545266 53.64233287 -0.17344277 55.34383392 -0.18662262 C57.73205144 -0.20379874 60.11955721 -0.2017749 62.5078125 -0.1953125 C63.20212372 -0.20452728 63.89643494 -0.21374207 64.61178589 -0.22323608 C72.76181288 -0.15462335 78.85557515 2.78035121 84.75097656 8.25878906 C90.45188475 14.41475866 91.66085988 20.4998253 91.67382812 28.6484375 C91.68127548 29.7712059 91.68127548 29.7712059 91.68887329 30.91665649 C91.70345708 33.38878303 91.7102912 35.86084536 91.71582031 38.33300781 C91.72157564 40.05690512 91.72733332 41.78080242 91.73309326 43.50469971 C91.74359302 47.1193471 91.74944214 50.73397232 91.75292969 54.34863281 C91.75840697 58.96639108 91.78242288 63.58385339 91.81090164 68.20151901 C91.82958437 71.76357868 91.83473665 75.32556792 91.83626556 78.88767242 C91.83928079 80.58922185 91.8472709 82.29077037 91.86045074 83.99227142 C91.87762686 86.38048894 91.87560303 88.76799471 91.86914062 91.15625 C91.87835541 91.85056122 91.88757019 92.54487244 91.89706421 93.26022339 C91.82845147 101.41025038 88.89347692 107.50401265 83.41503906 113.39941406 C77.25906946 119.10032225 71.17400282 120.30929738 63.02539062 120.32226562 C62.27687836 120.32723053 61.52836609 120.33219543 60.75717163 120.33731079 C58.2850451 120.35189458 55.81298277 120.3587287 53.34082031 120.36425781 C51.61692301 120.37001314 49.89302571 120.37577082 48.16912842 120.38153076 C44.55448103 120.39203052 40.9398558 120.39787964 37.32519531 120.40136719 C32.70743705 120.40684447 28.08997474 120.43086038 23.47230911 120.45933914 C19.91024945 120.47802187 16.34826021 120.48317415 12.7861557 120.48470306 C11.08460627 120.48771829 9.38305775 120.4957084 7.6815567 120.50888824 C5.29333918 120.52606436 2.90583342 120.52404053 0.51757812 120.51757812 C-0.17673309 120.52679291 -0.87104431 120.53600769 -1.58639526 120.54550171 C-9.73642225 120.47688897 -15.83018452 117.54191442 -21.72558594 112.06347656 C-27.42649413 105.90750696 -28.63546926 99.82244032 -28.6484375 91.67382812 C-28.6534024 90.92531586 -28.65836731 90.17680359 -28.66348267 89.40560913 C-28.67806646 86.9334826 -28.68490058 84.46142027 -28.69042969 81.98925781 C-28.69618501 80.26536051 -28.7019427 78.54146321 -28.70770264 76.81756592 C-28.7182024 73.20291853 -28.72405152 69.5882933 -28.72753906 65.97363281 C-28.73301635 61.35587455 -28.75703226 56.73841224 -28.78551102 52.12074661 C-28.80419375 48.55868695 -28.80934603 44.99669771 -28.81087494 41.4345932 C-28.81389016 39.73304377 -28.82188027 38.03149525 -28.83506012 36.3299942 C-28.85223624 33.94177668 -28.8502124 31.55427092 -28.84375 29.16601562 C-28.85296478 28.47170441 -28.86217957 27.77739319 -28.87167358 27.06204224 C-28.80306085 18.91201525 -25.86808629 12.81825298 -20.38964844 6.92285156 C-14.23367884 1.22194337 -8.1486122 0.01296824 0 0 Z " fill="#000000" transform="translate(28.4873046875,-0.1611328125)"/>
<path d="M0 0 C1.0209375 0.29003906 2.041875 0.58007812 3.09375 0.87890625 C9.11640448 2.77287259 12.79927311 4.4520734 16 10 C16.91876962 12.75080724 17.29503585 15.10749166 17 18 C14.58196242 22.83607515 11.20580589 26.69774432 6.09960938 28.77197266 C3.93360055 29.4719387 1.75993403 30.09375371 -0.4375 30.6875 C-1.54448242 31.00557617 -1.54448242 31.00557617 -2.67382812 31.33007812 C-19.28314315 36.010214 -39.48965405 36.21968875 -56 31 C-57.02222656 30.70996094 -58.04445313 30.41992188 -59.09765625 30.12109375 C-65.11646664 28.22584252 -68.84329416 26.57684698 -72 21 C-73.43075745 16.22795268 -73.56409881 13.12819762 -71.3125 8.625 C-66.93538163 3.65637915 -62.86037425 2.11061964 -56.625 0.375 C-55.8825 0.1584375 -55.14 -0.058125 -54.375 -0.28125 C-37.56376383 -5.09294657 -16.72027626 -5.3514071 0 0 Z " fill="#F2F2F2" transform="translate(88,45)"/>
<path d="M0 0 C1.875 2.75 1.875 2.75 2.5625 6.25 C1.875 9.75 1.875 9.75 -0.8125 12.5625 C-9.72474689 18.44794606 -19.69890789 18.51288479 -30.125 17.75 C-35.47196914 16.57875914 -39.69268958 15.0157627 -43.8125 11.375 C-45.44861188 8.10277624 -45.80183068 6.35976362 -45.125 2.75 C-42.01964239 -1.70101257 -38.3600905 -3.41146581 -33.265625 -4.74609375 C-22.1485738 -6.52979973 -9.43733619 -6.79488206 0 0 Z " fill="#070707" transform="translate(81.125,54.25)"/>
</svg>
