<svg width="24" height="24" viewBox="0 0 24 24" fill="none" xmlns="http://www.w3.org/2000/svg">
<path d="M14.8742 4.5804L18.5392 8.15088C18.8511 8.45416 19.0047 8.76103 18.9999 9.07026C18.995 9.3795 18.8608 9.66136 18.5984 9.91707C18.3239 10.1847 18.0277 10.3203 17.7109 10.3262C17.3941 10.331 17.0797 10.1811 16.7677 9.87785L13.0193 6.22648C12.5937 5.8114 12.1825 5.51762 11.7872 5.34516C11.3917 5.1727 10.9758 5.14535 10.5405 5.26428C10.104 5.38203 9.63603 5.68532 9.13422 6.17295C8.44258 6.84733 8.11246 7.48007 8.14634 8.0712C8.18018 8.6623 8.52358 9.27602 9.17534 9.90996L12.954 13.5922C13.2696 13.8991 13.4244 14.2059 13.4195 14.5104C13.4147 14.8161 13.2793 15.098 13.012 15.3584C12.746 15.6177 12.4522 15.7533 12.133 15.764C11.8137 15.7747 11.4957 15.6261 11.1813 15.3192L7.51634 11.7487C6.92022 11.1683 6.48975 10.6188 6.22495 10.1002C5.96014 9.58168 5.86099 8.99533 5.92991 8.34118C5.99158 7.78099 6.17416 7.23864 6.47887 6.71294C6.78237 6.18723 7.21768 5.64964 7.78237 5.09896C8.45466 4.44362 9.09673 3.94171 9.70858 3.59203C10.3192 3.24236 10.9105 3.04849 11.4812 3.00806C12.0532 2.96762 12.6166 3.07942 13.1741 3.34346C13.7315 3.6075 14.2974 4.01902 14.873 4.5804H14.8742Z" fill="url(#paint0_linear_4212_6487)"/>
<path d="M9.12459 18.9872L5.46081 15.4167C5.14884 15.1122 4.99527 14.8066 5.00011 14.4973C5.00495 14.1881 5.13917 13.9062 5.40156 13.6505C5.67604 13.3829 5.97229 13.2473 6.28909 13.2414C6.60589 13.2366 6.92028 13.3853 7.23225 13.6897L10.9795 17.3411C11.4063 17.7562 11.8162 18.05 12.2116 18.2224C12.607 18.3949 13.023 18.421 13.4595 18.3033C13.896 18.1856 14.3639 17.8823 14.8657 17.3934C15.5574 16.7191 15.8875 16.0863 15.8537 15.4952C15.8198 14.9041 15.4764 14.2904 14.8247 13.6553L12.8114 11.7106C12.4958 11.4038 12.341 11.0969 12.3458 10.7925C12.3507 10.4868 12.4861 10.2049 12.7533 9.94445C13.0194 9.68514 13.3132 9.54957 13.6324 9.53887C13.9516 9.52816 14.2696 9.67682 14.584 9.9837L16.4824 11.8165C17.0785 12.3969 17.509 12.9464 17.7738 13.465C18.0386 13.9835 18.1378 14.5699 18.0688 15.224C18.0072 15.7842 17.8246 16.3266 17.5199 16.8523C17.2164 17.378 16.7811 17.9156 16.2164 18.4663C15.5441 19.1216 14.902 19.6235 14.2902 19.9732C13.6783 20.3229 13.0871 20.5179 12.5151 20.5583C11.9432 20.5988 11.3797 20.487 10.8223 20.2229C10.2648 19.9589 9.69894 19.5474 9.12338 18.986L9.12459 18.9872Z" fill="url(#paint1_linear_4212_6487)"/>
<path d="M11.4098 9.77448C12.153 9.77448 12.7556 9.18182 12.7556 8.4507C12.7556 7.71962 12.153 7.12695 11.4098 7.12695C10.6665 7.12695 10.064 7.71962 10.064 8.4507C10.064 9.18182 10.6665 9.77448 11.4098 9.77448Z" fill="url(#paint2_radial_4212_6487)"/>
<defs>
<linearGradient id="paint0_linear_4212_6487" x1="17.9364" y1="6.66057" x2="6.64095" y2="11.7639" gradientUnits="userSpaceOnUse">
<stop stop-color="#201C1B"/>
<stop offset="0.36" stop-color="#77390D"/>
<stop offset="0.67" stop-color="#EA8101"/>
<stop offset="1" stop-color="#F4B852"/>
</linearGradient>
<linearGradient id="paint1_linear_4212_6487" x1="6.3763" y1="17.0541" x2="19.5023" y2="13.0825" gradientUnits="userSpaceOnUse">
<stop stop-color="#1F1D1C"/>
<stop offset="0.37" stop-color="#77390D"/>
<stop offset="0.67" stop-color="#EA8101"/>
<stop offset="1" stop-color="#F4FB52"/>
</linearGradient>
<radialGradient id="paint2_radial_4212_6487" cx="0" cy="0" r="1" gradientUnits="userSpaceOnUse" gradientTransform="translate(11.4098 8.45191) scale(1.34581 1.32377)">
<stop stop-color="#F4B852"/>
<stop offset="0.33" stop-color="#EA8101"/>
<stop offset="0.64" stop-color="#77390D"/>
<stop offset="1" stop-color="#211C1D"/>
</radialGradient>
</defs>
</svg>
