<svg width="24" height="24" viewBox="0 0 24 24" fill="none" xmlns="http://www.w3.org/2000/svg">
<path d="M19.4283 19.185V16.4677C19.4283 16.36 19.3855 16.2572 19.3092 16.1809L7.74741 4.61916C7.67106 4.54281 7.56829 4.5 7.46055 4.5H4.74332C4.60917 4.5 4.5 4.60917 4.5 4.74332V7.26787C4.5 7.37562 4.54281 7.47837 4.61916 7.55472L8.76923 11.7047C8.86412 11.7997 8.86412 11.9538 8.76923 12.0487L4.57136 16.2465C4.52569 16.2922 4.5 16.3543 4.5 16.4185V19.185C4.5 19.319 4.60917 19.4283 4.74332 19.4283H9.28369C9.41784 19.4283 9.527 19.319 9.527 19.185V17.5552C9.527 17.491 9.55271 17.4289 9.59838 17.3832L11.8504 15.1312C11.9453 15.0363 12.0994 15.0363 12.1943 15.1312L16.3729 19.3099C16.4492 19.3862 16.552 19.429 16.6597 19.429H19.1843C19.3185 19.429 19.4276 19.3198 19.4276 19.1857L19.4283 19.185Z" fill="white"/>
<path d="M13.372 8.09816H15.6461C15.781 8.09816 15.8909 8.20805 15.8909 8.34292V10.617C15.8909 10.8353 16.1549 10.9445 16.309 10.7897L19.4287 7.66505C19.4743 7.61937 19.5001 7.5573 19.5001 7.49236V4.75588C19.5001 4.62102 19.3908 4.51114 19.2553 4.51114L16.4781 4.50757C16.4132 4.50757 16.3511 4.53326 16.3047 4.57892L13.1986 7.68003C13.0445 7.83415 13.1537 8.09816 13.3713 8.09816H13.372Z" fill="#EE7A30"/>
</svg>
